# xmcd
#
# Track frame offsets:
#	150
#	2400
#	15648
#	17387
#	28530
#	43889
#	56948
#	90223
#	106337
#	106746
#	119175
#	122978
#	141743
#	142473
#	156857
#	171055
#	184586
#	185379
#	196336
#	220867
#	234133
#	249751
#	265674
#	275738
#	288633
#	312485
#
# Disc length: 4380 seconds
#
# Revision: 0
# Processed by: cddbd v1.5.2PL0 Copyright (c) Steve Scherf et al.
# Submitted via: EasyCDDAExtractor 15.3.0.1
#
DISCID=77111a1a
DTITLE=Wills Bob - Faded Love CD 13
DYEAR=1900
DGENRE=
TTITLE0=Intro (1972)
TTITLE1=Osage Stomp (1972)
TTITLE2=Talkin' (1972)
TTITLE3=Bubbles In My Beer (1972)
TTITLE4=Don't Let The Deal Go Down (1972)
TTITLE5=Deep Water (1972)
TTITLE6=South (1972)
TTITLE7=Kind Of Love I Can't Forget (1972)
TTITLE8=Talkin' 2 (1972)
TTITLE9=Corrine Corrine (1972)
TTITLE10=Talkin' 3 (1972)
TTITLE11=Sittin' On Top Of The World (1972)
TTITLE12=Talkin' 4 (1972)
TTITLE13=Twin Gutar Special (1972)
TTITLE14=Twinkle Twinkle Little Star (1972)
TTITLE15=Faded Love (1972)
TTITLE16=Talkin' 5 (1972)
TTITLE17=Medley Of Fiddle Tunes (1972)
TTITLE18=My Mother's Eyes (1972)
TTITLE19=Steel Guitar Rag (1972)
TTITLE20=My Mary (1972)
TTITLE21=Dreamy Eyes Waltz (1972)
TTITLE22=Miss Molly (1972)
TTITLE23=Misery (1972)
TTITLE24=I Never Knew (1972)
TTITLE25=Sugar Moon (1972)
EXTD=
EXTT0=
EXTT1=
EXTT2=
EXTT3=
EXTT4=
EXTT5=
EXTT6=
EXTT7=
EXTT8=
EXTT9=
EXTT10=
EXTT11=
EXTT12=
EXTT13=
EXTT14=
EXTT15=
EXTT16=
EXTT17=
EXTT18=
EXTT19=
EXTT20=
EXTT21=
EXTT22=
EXTT23=
EXTT24=
EXTT25=
PLAYORDER=
